<svg xmlns="http://www.w3.org/2000/svg" xmlns:xlink="http://www.w3.org/1999/xlink" id="Layer_1" x="0" y="0" enable-background="new 0 0 725.3 941.3" version="1.1" viewBox="0 0 725.3 941.3" xml:space="preserve"><style type="text/css">.st0{fill:#070707}.st1{fill:#f2f2f2}.st2{fill:#858585}</style><g><path d="M342.3,83.8c18.2-28.1,48.4-48.2,81.4-53.5c2.3,30-7.2,60.6-25.9,84.1c-18.4,23.5-45.7,39.9-75.1,44.8 C320.8,132.9,327.7,105.9,342.3,83.8z" class="st0"/><path d="M252.9,179.3c15.8-5.5,32.3-9.3,49.1-9.6c19.1-0.4,38.3,0.7,57,4.8c33.3,8.4,64,26.7,87.6,51.6 c16,16.9,28.5,37,36.9,58.6c0.3-0.4,0.8-1.3,1-1.8c8.5,21.8,11.1,45.3,12.2,68.5c1,12.2,2.3,24.3,4.8,36.3 c3.5,16.1,9.6,31.8,19,45.4c12.4,18.3,28.9,33.2,45.7,47.3c14.3,11.6,28.7,23.2,41,37c8.5,9.8,17.2,20.1,20.8,32.8v7.1 c-0.8,3.1-2,6.8-5.3,8c-5,2.8-10.7,0-15.3-2.3c-20.3-9.9-38.8-23.5-60.3-30.9c-3.1-0.7-7-2.7-9.8-0.3c-1.3,3-1.5,6.4-1.7,9.6 c0.1,17.3-3.6,34.3-7.6,51.1c-4.3,16.4-10.8,32.1-19.2,46.8c-3.3-4.6,0.2-9.5,2.2-13.8c2.2-5.1,5-10.1,5.9-15.7 c-8.9,5.1-15.5,13.5-24.3,18.7c-1.5-10.6-1-21.4-1.1-32c-0.4-18.1-0.9-36.4-4.9-54.1c-8.7-38.8-26.2-76.1-53.2-105.5 c-6.5-7.4-14-13.9-21.8-20c2.2-1.4,2.7-1.8,3.4-2.5c4.2-5.4,9.6-9.9,13.5-15.6c20.9-29,21.4-70.5,2.7-100.7 c-5-8.3-11.6-15.7-19.9-20.9c-9.4-5.7-20.1-10.1-31.3-9.1c-7.5,1.3-14.9,3.6-21.9,6.4c-13.1,7.6-23.2,19.8-29.7,33.4 c-3.5,7.3-5.4,15.2-7.2,23.1c-1.5,5.4,0,11,0,16.5c0.1-7.8,3.9-14.9,9.2-20.4c3.7-3.6,9.4-5.4,14.3-3.2c6,2.3,9.2,8.4,12.1,13.7 c3.3,9.3,3.1,19.6,0.1,28.9c-3.3,6.5-8,14.1-16,14.6c-5.8,0.7-10.3-3.6-13.9-7.5c0.7,3.4,1.9,6.8,2.1,10.4 c-8-1.2-16.1-2.1-24.1-1.1c0.2-0.6,0.5-1.9,0.7-2.5c0.8-2.8,1.5-5.5,2.2-8.3c-3.5,3.6-7.5,7.8-13,7.6c-6.1,0.3-10.9-4.4-13.9-9.2 c-5.8-10.2-6.3-22.8-2.8-33.8c2.2-6,6-12.2,12.3-14.4c4.6-1.8,9.9-0.1,13.5,3.2c5.6,5.5,9.1,12.8,9.7,20.7c0.4-3.8,1.3-7.6,1-11.4 c-2.5-10.4-4.5-21.1-9.6-30.6c-5.5-10.8-13.5-20.4-23.2-27.6c-2.3-1.7-4.7-3.3-7.4-4.3c-6.4-2.2-12.9-4.3-19.6-5.4 c-11.3-1-22.1,3.4-31.6,9.2c-16.1,10.4-25.8,28.4-30.4,46.6c-7.6,29.8,0.1,63.9,22.6,85.5c1.4,1.7,3.6,3.2,3.9,5.6 c-2.6,2.6-5.6,4.8-8.3,7.2c-16.3,13.8-30.4,30.2-41.4,48.5c-14.9,24.3-24.6,51.5-30.2,79.4c-4.3,20.7-2.7,41.9-3.5,62.8 c-0.1,5.7,0.1,11.4-0.8,17c-8.8-5-15.5-12.9-24.2-18.1c0.7,5.3,3.8,9.9,4.1,15.2c-1.4-1.2-2.5-2.6-3.2-4.3 c-6.8-14.2-11.1-29.4-14.1-44.8c-0.4,0.1-1.4,0.4-1.8,0.5c-2.2-10.4-3.1-21-3.9-31.6c-0.4-5.2-0.8-10.4-2.9-15.3 c-8.7,0.6-16.4,4.8-24.2,8.3c-15.4,7.5-29.9,16.7-45,24.8c-3.6,1.8-7.7,4.1-11.8,2.9c-3.1-1.2-6.7-3.2-7.2-6.8 c-0.4-1.4-0.7-2.9-0.9-4.4v-6c1.3-6.8,5.2-12.8,9.2-18.2c5.9-7.7,12.1-15.2,18.9-22.2c14.6-14.2,31.3-26,46.3-39.7 c16.4-14.4,31.4-31,41.2-50.8c9.3-19.2,13-40.6,14.9-61.8c1.5-16.5,1.6-33.3,5-49.6c5.9-24.9,17-48.8,33.3-68.6l-1.3,3.3 C189.3,213.4,219.2,191.2,252.9,179.3 M287.8,325.8c1.9,2.7,4.1,5.3,6,8c1.9,2.6,2.6,5.8,4.3,8.6c3.8-1.5,7.6-2.8,11.5-4.2 c-1.9-5.7-5.2-11.8-11.2-14.1C294.8,322.7,290.9,323.9,287.8,325.8 M333.3,327.4c2,2.6,4.1,5.2,6,7.9c1.9,2.6,2.6,5.8,4.4,8.5 c3.8-1.5,7.6-2.8,11.4-4.2c-2-5.3-4.8-11-10.1-13.5C341.2,324,336.7,325.1,333.3,327.4z" class="st0"/><path d="M340.2,699.8c13.4-9.2,28.3-15.8,43.4-21.7c0,0.4-0.1,1.2-0.2,1.6c-0.2,0.1-0.7,0.2-0.9,0.3 c-14.4,6.3-28,14.8-38.2,26.9c-9.3,11-16.5,25-15.3,39.7c0.6,9,5.6,17.3,12.8,22.7c-0.5,0-1.4,0.1-1.9,0.1c-3.2-1.9-6-4.7-9.6-6 c-4.3-1.6-8.9-1.6-13.3-2c-5-0.2-10-0.9-14.9-0.2c-5.2,0.8-8.9,4.8-13.1,7.5c-0.9,0.6-1.8,0.7-2.9,0.3c5.8-4.5,10.3-11,10.9-18.4 c1.2-11.5-0.4-23.7-6.2-33.8c-8.7-14-22.2-24.3-36.5-32.3c-0.4-0.6-1.2-1.8-1.6-2.4c9,3.7,17.3,8.9,25.6,14 c9.4,5.7,17.8,12.9,27.7,17.6c4,2,8.9,2,12.9-0.1C326.6,709.9,333.2,704.4,340.2,699.8z" class="st0"/></g><g><path d="M270.1,172.4c35.7-8.9,74.1-6.5,108.5,6.8c27.8,10.6,52.7,28.2,72.5,50.4c14.3,15.5,26,33.5,33.4,53.3 c-0.3,0.4-0.8,1.3-1,1.8c-8.4-21.6-20.9-41.8-36.9-58.6c-23.6-24.9-54.3-43.1-87.6-51.6c-18.7-4.1-37.9-5.2-57-4.8 c-16.8,0.2-33.3,4.1-49.1,9.6c-33.7,12-63.5,34.1-85.3,62.4l1.3-3.3C194.3,206.2,230.2,182.2,270.1,172.4z" class="st1"/><path d="M223.4,275.9c9.5-5.8,20.3-10.2,31.6-9.2c6.7,1.1,13.2,3.2,19.6,5.4c2.7,0.9,5.1,2.6,7.4,4.3 c9.8,7.2,17.7,16.8,23.2,27.6c5.1,9.5,7.1,20.2,9.6,30.6c0.2,3.8-0.6,7.6-1,11.4c-0.5-7.8-4.1-15.2-9.7-20.7 c-3.5-3.3-8.8-4.9-13.5-3.2c-6.3,2.3-10.1,8.4-12.3,14.4c-3.5,11-3.1,23.7,2.8,33.8c2.9,4.8,7.8,9.6,13.9,9.2c5.4,0.2,9.5-4,13-7.6 c-0.8,2.8-1.4,5.5-2.2,8.3c-0.6,0.8-1.2,1.6-1.9,2.3c-11,1.5-21.3,5.9-31.3,10.4c-4.8,2.3-9.8,4.5-13.6,8.3 c-3,3.8-2.8,9.1-2.4,13.6c1.8,5.8,5.5,10.9,9.9,15c12,13,23.2,26.8,35.8,39.2c2.9,3.3,6.9,6.2,11.6,5.8c6.9-1.1,12.1-6.1,16.9-10.8 c6.1-6.8,12.4-13.5,18.8-20.1c6.1-8.8,13-16.9,19.8-25.2c2.2-2.6,4.1-5.8,3.7-9.4c-0.3-2.6,0.1-6-2.5-7.6c-4.2-3.4-9-5.9-13.8-8.2 c-8.8-4.1-17.9-7.8-27.4-9.7c-0.1-3.6-1.3-6.9-2.1-10.4c3.6,3.9,8.1,8.2,13.9,7.5c8-0.5,12.8-8.1,16-14.6c3-9.3,3.2-19.7-0.1-28.9 c-2.9-5.3-6.1-11.4-12.1-13.7c-4.9-2.2-10.7-0.4-14.3,3.2c-5.4,5.4-9.1,12.6-9.2,20.4c-0.1-5.5-1.5-11.1,0-16.5 c1.8-7.9,3.6-15.8,7.2-23.1c6.5-13.6,16.6-25.8,29.7-33.4c7.1-2.8,14.4-5.1,21.9-6.4c11.2-0.9,21.9,3.4,31.3,9.1 c8.3,5.1,14.9,12.6,19.9,20.9c18.7,30.3,18.2,71.7-2.7,100.7c-3.9,5.7-9.2,10.2-13.5,15.6c0.7,0.9-1.6,2.5-3.4,2.5 c7.8,6.1,15.3,12.6,21.8,20c27,29.4,44.5,66.7,53.2,105.5c4,17.8,4.5,36,4.9,54.1c0.1,10.7-0.5,21.4,1.1,32 c8.9-5.2,15.4-13.6,24.3-18.7c-0.9,5.6-3.7,10.6-5.9,15.7c-2,4.3-5.5,9.2-2.2,13.8c-7.3,12.7-14.8,25.3-23.6,37 c-0.9-0.2-2.6-0.5-3.5-0.7c-13.3-5-27.6-6-41.8-5.8c-14-0.3-28.2,0.9-41.8,4.8c-2.7,0.8-5.6,0.7-8.4,0.7c0.2,0.4,0.5,1.3,0.6,1.8 c-2.3,0.8-4.6,1.6-7,2.3c0.1-0.4,0.1-1.2,0.2-1.6c-15.1,5.8-30,12.5-43.4,21.7c-7,4.7-13.6,10.1-21.2,13.8c-4,2.1-8.9,2.1-12.9,0.1 c-9.9-4.7-18.3-11.9-27.7-17.6c-8.3-5.1-16.6-10.2-25.6-14c0.4,0.6,1.2,1.8,1.6,2.4c-6.8-3.3-13.7-6.3-20.9-8.6 c-17.5-6-36.3-5.1-54.5-5.3c-10.5-0.3-21,1.6-31.1,4.1c-1,0.3-2,0.8-2.9,1.2c-2.9-0.4-4.5-2.8-6.2-4.9 c-20.7-27.8-36.1-59.8-42.7-93.9c0.5-0.1,1.4-0.4,1.8-0.5c3,15.4,7.3,30.7,14.1,44.8c0.7,1.7,1.8,3.1,3.2,4.3 c-0.3-5.3-3.4-10-4.1-15.2c8.7,5.1,15.4,13.1,24.2,18.1c0.9-5.6,0.7-11.4,0.8-17c0.8-20.9-0.8-42.1,3.5-62.8 c5.6-27.9,15.4-55.1,30.2-79.4c11.1-18.3,25.1-34.7,41.4-48.5c2.7-2.5,5.8-4.6,8.3-7.2c-0.3-2.4-2.5-3.9-3.9-5.6 c-22.5-21.5-30.2-55.7-22.6-85.5C197.6,304.3,207.3,286.3,223.4,275.9" class="st1"/><path d="M287.8,325.8c3.2-1.9,7-3.1,10.6-1.8c6,2.3,9.2,8.3,11.2,14.1c-3.8,1.4-7.7,2.7-11.5,4.2 c-1.6-2.8-2.4-5.9-4.3-8.6C291.9,331.1,289.7,328.5,287.8,325.8z" class="st1"/><path d="M333.3,327.4c3.4-2.3,7.9-3.4,11.7-1.3c5.3,2.6,8.1,8.2,10.1,13.5c-3.8,1.5-7.6,2.7-11.4,4.2 c-1.8-2.7-2.5-5.9-4.4-8.5C337.4,332.6,335.3,330,333.3,327.4z" class="st1"/></g><g><path d="M303.9,382.8c0.6-0.8,1.3-1.6,1.9-2.3c-0.2,0.6-0.5,1.9-0.7,2.5c8.1-1,16.2-0.1,24.1,1.1 c9.5,1.9,18.6,5.6,27.4,9.7c4.9,2.2,9.7,4.7,13.8,8.2c2.6,1.6,2.2,4.9,2.5,7.6c0.4,3.5-1.5,6.8-3.7,9.4 c-6.8,8.2-13.7,16.4-19.8,25.2c-6.4,6.6-12.6,13.3-18.8,20.1c-4.7,4.7-10,9.8-16.9,10.8c-4.7,0.4-8.6-2.5-11.6-5.8 c-12.6-12.4-23.8-26.1-35.8-39.2c-4.4-4.1-8-9.2-9.9-15c-0.5-4.6-0.6-9.8,2.4-13.6c3.8-3.8,8.9-6,13.6-8.3 C282.6,388.7,292.9,384.3,303.9,382.8z" class="st2"/><path d="M147.8,674.7c10.2-2.5,20.6-4.4,31.1-4.1c18.2,0.2,37-0.7,54.5,5.3c7.2,2.3,14.1,5.3,20.9,8.6 c14.3,7.9,27.8,18.2,36.5,32.3c5.8,10.1,7.4,22.3,6.2,33.8c-0.7,7.4-5.2,13.9-10.9,18.4c-3.5,2.4-7.3,4.5-11.6,5 c-13.7,1.7-27.6,0.6-41.4,1.6h-90.6c-13.8-1.2-27.8,0-41.6-2c-7.1-1.6-14-5.8-17.8-12.2c-4.1-7.6-4.1-16.6-3.1-25 c1.5-12.3,7.7-23.7,16.5-32.2c13.5-13.2,31-21.3,48.3-28.4C145.9,675.4,146.8,675,147.8,674.7z" class="st2"/><path d="M398.2,674.8c13.5-3.9,27.8-5.1,41.8-4.8c14.1-0.2,28.4,0.8,41.8,5.8c12.9,5.2,26,10.5,37.3,18.6 c10,7.3,19.2,16.3,24.3,27.8c4.5,9.8,6.8,21.1,4.2,31.8c-2.3,9.2-10.1,16.2-18.8,19.4c-6.6,1.7-13.5,0.9-20.1,1.4l2.7,0.8h-90 c-23.1-0.6-46.3-0.2-69.4-1.6c-3.9-0.1-7-2.7-10.1-4.7c-7.1-5.4-12.1-13.7-12.8-22.7c-1.2-14.8,6-28.8,15.3-39.7 c10.2-12.1,23.8-20.7,38.2-26.9c0.2-0.1,0.7-0.2,0.9-0.3c2.3-0.8,4.6-1.5,7-2.3c-0.1-0.4-0.4-1.3-0.6-1.8 C392.6,675.6,395.5,675.6,398.2,674.8z" class="st2"/></g><path d="M414.5,415.9" class="st1"/></svg>